<svg id="Capa_1" enable-background="new 0 0 512.483 512.483" height="512" viewBox="0 0 512.483 512.483" width="512" xmlns="http://www.w3.org/2000/svg"><g><g><g><path d="m451.304 258.391c-25.078-15.897-53.135-23.814-81.144-22.871-12.262.409-24.234 2.648-35.813 4.815-15.133 2.831-29.424 5.508-44.084 4.353-25.656-2.017-44.9-8.72-58.833-20.492-4.728-3.995-9.5-9.606-14.591-17.154-18.977-28.134-18.799-66.41.432-93.081 17.589-24.394 48.347-34.714 74.797-25.102 22.725 8.26 36.231 30.28 32.115 52.358-2.502 13.416-13.428 23.771-25.979 24.624-7.248.497-12.942-4.243-14.623-8.948-.531-1.487-.896-3.203-1.082-5.1-.954-9.678-7.185-17.763-16.669-21.626-9.582-3.904-20.163-2.441-27.615 3.82-5.707 4.796-9.065 11.641-9.714 19.795-1.378 17.335 9.337 36.59 16.875 45.302 18.088 20.907 47.256 28.367 76.114 19.469 28.126-8.67 48.908-30.471 57.017-59.813 9.019-32.635.808-68.266-21.429-92.987-29.23-32.497-66.403-44.509-110.481-35.702-52.183 10.425-92.511 54.163-100.35 108.835-3.726 25.979-.824 51.709 8.39 74.407 2.623 6.463 6.075 12.954 10.553 19.841 2.259 3.473 6.902 4.456 10.376 2.2 3.473-2.258 4.458-6.903 2.2-10.376-3.951-6.077-6.97-11.738-9.23-17.307-8.216-20.24-10.789-43.283-7.44-66.636 6.938-48.391 42.48-87.073 88.441-96.255 38.519-7.694 70.951 2.742 96.39 31.024 18.848 20.954 25.792 51.209 18.123 78.96-6.718 24.309-23.841 42.342-46.977 49.474-23.094 7.117-46.218 1.388-60.353-14.95-7.044-8.141-14.118-23.57-13.266-34.299.332-4.177 1.775-7.285 4.411-9.5 3.798-3.191 8.847-2.822 12.306-1.413 4.236 1.726 7.002 5.167 7.4 9.204.306 3.117.94 6.038 1.885 8.679 4.221 11.816 16.757 19.75 29.764 18.867 19.584-1.33 35.913-16.479 39.71-36.84 5.467-29.324-12.087-58.429-41.738-69.206-32.725-11.894-70.595.616-92.088 30.427-11.297 15.668-17.327 34.55-17.439 54.602-.111 19.999 5.678 39.238 16.74 55.639 5.874 8.709 11.547 15.324 17.345 20.224 16.416 13.87 38.442 21.716 67.339 23.989 16.638 1.309 32.592-1.676 48.018-4.563 11.536-2.158 22.432-4.197 33.555-4.567 24.986-.837 50.091 6.272 72.612 20.548 41.29 26.173 61.994 74.452 51.52 120.136-.753 3.285-1.621 6.521-2.581 9.619-1.226 3.957.988 8.158 4.944 9.384.739.229 1.486.338 2.222.338 3.201 0 6.165-2.065 7.162-5.282 1.07-3.456 2.037-7.059 2.874-10.707 11.89-51.869-11.462-106.586-58.111-136.156z"/><path d="m488.464 428.466c-3.388-2.384-8.067-1.567-10.449 1.82-11.897 16.916-29.071 29.061-51.046 36.099-26.838 8.597-57.281 2.522-79.446-15.853-19.416-16.096-28.841-39.107-25.858-63.133 2.979-23.979 17.687-42.722 38.385-48.914 5.929-1.774 13.251-2.533 19.118-1.987 7.679.718 14.933 1.396 19.83 5.982 3.814 3.572 6.024 10.462 3.235 15.024-2.512 4.107-7.9 7.625-13.795 5.643-2.968-.998-5.89-1.617-8.686-1.84-12.526-.989-24.879 7.167-29.414 19.411-6.817 18.407.303 39.513 17.315 51.324 10.138 7.039 21.853 10.468 33.667 10.467 16.74-.001 33.677-6.889 46.567-20.153 24.27-24.97 28.387-64.638 10.014-96.465-9.656-16.729-24.404-29.973-42.647-38.298-18.194-8.302-38.115-10.914-57.61-7.55-16.759 2.892-32.945 10.689-48.108 23.175-11.746 9.672-22.867 21.919-34.997 38.542-9.087 12.453-16.504 26.158-23.676 39.412-11.205 20.705-21.788 40.262-38.193 55.493-14.989 13.917-34.262 24.207-55.735 29.758-47.326 12.238-96.717-5.661-122.895-44.537-21.94-32.584-24.8-66.533-8.5-100.902 12.077-25.465 37.323-43.528 65.887-47.141 25.012-3.16 48.257 5.69 63.751 24.293 15.464 18.567 19.086 42.115 9.453 61.453-2.761 5.541-7.213 11.407-11.621 15.311-10.811 9.573-19.353 12.848-25.389 9.734-2.788-1.439-4.815-4.019-5.711-7.264-1.28-4.64-.164-10.977 5.312-13.923 2.756-1.482 5.206-3.192 7.282-5.082 9.278-8.446 11.778-23.055 5.945-34.735-8.771-17.561-29.041-26.793-49.293-22.454-29.167 6.25-49.265 33.661-47.788 65.175 1.631 34.783 27.764 64.909 63.553 73.26 18.81 4.39 38.557 2.683 57.106-4.939 18.498-7.601 34.022-20.354 44.897-36.881 10.727-16.303 17.105-35.02 18.444-54.128.003-.043.006-.087.008-.13.974-18.507-1.723-37.281-7.796-54.292-5.083-14.232-13.376-26.208-21.581-37.03-2.503-3.3-7.208-3.949-10.508-1.445-3.301 2.503-3.947 7.207-1.445 10.508 7.479 9.865 15.008 20.692 19.407 33.012 5.405 15.139 7.808 31.872 6.947 48.394-1.17 16.524-6.704 32.729-16.008 46.868-18.653 28.35-54.041 42.931-86.064 35.458-29.285-6.834-50.659-31.242-51.977-59.355-1.132-24.153 13.985-45.1 35.946-49.806 13.346-2.858 27.11 3.234 32.73 14.489 3.246 6.498 1.071 13.579-2.622 16.94-1.17 1.065-2.613 2.062-4.292 2.965-10.896 5.862-16.104 18.661-12.664 31.123 2.02 7.325 6.739 13.221 13.29 16.603 12.096 6.245 26.299 2.261 42.214-11.833 5.841-5.173 11.486-12.593 15.102-19.852 12.326-24.745 7.976-54.533-11.354-77.741-18.835-22.615-46.96-33.396-77.159-29.575-33.591 4.249-63.309 25.551-77.557 55.594-18.729 39.491-15.496 78.421 9.611 115.708 23.516 34.924 63.414 54.966 105.536 54.965 11.116 0 22.39-1.396 33.555-4.284 23.876-6.173 45.379-17.684 62.186-33.288 18.217-16.913 29.891-38.485 41.181-59.347 6.936-12.817 14.108-26.072 22.601-37.709 16.748-22.951 40.242-50.032 73.539-55.778 33.437-5.768 68.278 10.09 84.717 38.565 15.034 26.045 11.835 58.33-7.779 78.512-16.854 17.34-42.476 20.628-60.924 7.819-11.21-7.782-16.174-21.994-11.804-33.792 2.522-6.811 9.17-10.059 14.155-9.668 1.575.126 3.29.498 5.098 1.105 11.728 3.942 24.628-1.006 31.373-12.037 5.349-8.751 5.141-23.57-5.779-33.797-8.645-8.096-19.759-9.135-28.688-9.969-7.77-.725-17.044.227-24.813 2.551-26.484 7.923-45.249 31.464-48.972 61.437-3.626 29.207 7.735 57.101 31.17 76.529 26.067 21.609 61.931 28.731 93.597 18.59 25.156-8.058 44.919-22.106 58.739-41.754 2.383-3.389 1.568-8.067-1.82-10.45z"/></g></g></g></svg>